HIERARCHY
ROOT Hips
{
  OFFSET -125.889 92.9254 -48.0707
  CHANNELS 6 Xposition Yposition Zposition Zrotation Xrotation Yrotation
  JOINT Spine
  {
    OFFSET -0.000355721 21.3001 -0.016921
    CHANNELS 3 Zrotation Xrotation Yrotation
    JOINT LeftArm
    {
      OFFSET 13.5181 21.3012 0
      CHANNELS 3 Zrotation Xrotation Yrotation
      JOINT LeftForeArm
      {
        OFFSET 24.5783 0 0
        CHANNELS 3 Zrotation Xrotation Yrotation
        JOINT LeftHand
        {
          OFFSET 24.5783 0 0
          CHANNELS 3 Zrotation Xrotation Yrotation
          End Site
          {
            OFFSET 7.32568 1.52588e-05 0.0169305
          }
        }
      }
    }
    JOINT Head
    {
      OFFSET 0 27.4458 -0.00489235
      CHANNELS 3 Zrotation Xrotation Yrotation
      End Site
      {
        OFFSET 0 0 0
      }
    }
    JOINT RightArm
    {
      OFFSET -13.5174 21.3012 0
      CHANNELS 3 Zrotation Xrotation Yrotation
      JOINT RightForeArm
      {
        OFFSET -24.5783 0 0
        CHANNELS 3 Zrotation Xrotation Yrotation
        JOINT RightHand
        {
          OFFSET -24.5783 0 0
          CHANNELS 3 Zrotation Xrotation Yrotation
          End Site
          {
            OFFSET -7.32568 1.52588e-05 0.0169305
          }
        }
      }
    }
  }
  JOINT RightUpLeg
  {
    OFFSET -8.44614 -9.41038 0.835684
    CHANNELS 3 Zrotation Xrotation Yrotation
    JOINT RightLeg
    {
      OFFSET 0 -40.9639 0
      CHANNELS 3 Zrotation Xrotation Yrotation
      JOINT RightFoot
      {
        OFFSET 0 -40.9639 0
        CHANNELS 3 Zrotation Xrotation Yrotation
        End Site
        {
          OFFSET 0.50614 -9.67405 14.6709
        }
      }
    }
  }
  JOINT LeftUpLeg
  {
    OFFSET 8.44614 -9.41038 0.835684
    CHANNELS 3 Zrotation Xrotation Yrotation
    JOINT LeftLeg
    {
      OFFSET 0 -40.9639 0
      CHANNELS 3 Zrotation Xrotation Yrotation
      JOINT LeftFoot
      {
        OFFSET 0 -40.9639 0
        CHANNELS 3 Zrotation Xrotation Yrotation
        End Site
        {
          OFFSET -0.50614 -9.67405 14.6709
        }
      }
    }
  }
}
MOTION
Frames:	11
Frame Time:	0.0333333
242.756 97.451 -28.5636 3.44229 17.2202 7.71399 -6.90793 -5.00549 7.62092 -46.8939 2.88583 -9.01725 0.00255602 -0.000102679 -4.59546 -24.8685 -15.6029 -7.34622 -20.2418 -13.851 -83.3948 26.8976 49.2746 46.0121 0.000341292 5.22622e-06 14.8332 -13.5052 17.8198 -1.0457 -4.105 -27.4107 -15.2735 0.000626334 15.4274 0.0247822 28.9331 -14.6153 -12.6183 -1.76195 -24.9596 6.53795 0.000213551 20.9625 0.0172904 -11.7409 -8.13715 18.1602 
243.951 97.3343 -29.4447 3.83842 16.9824 2.83386 -7.01451 -4.86185 7.90254 -44.7457 -4.42758 -6.68496 0.002567 -0.000102756 -4.02593 -18.73 -14.3512 -5.84399 -19.5942 -13.9381 -83.3005 20.8424 48.5994 54.6243 0.000371441 5.21827e-06 15.1589 -15.0169 23.104 -0.813638 -4.26765 -27.9341 -16.7054 -0.000709787 15.3717 -0.025131 38.3729 -12.1019 -5.69158 -1.8569 -24.4047 10.8161 0.00483229 19.677 0.003049 -5.58888 -8.76504 22.149 
245.152 97.0939 -30.3783 4.82282 17.0185 -2.53331 -7.7003 -4.92016 8.07615 -42.5939 -11.0759 -2.93052 0.00257316 -0.000102505 -5.67447 -12.9961 -11.9214 -2.84682 -18.6268 -14.3819 -83.2878 15.0254 47.6154 62.6862 0.000400391 5.1814e-06 16.5875 -16.0359 24.1468 -0.76691 -5.5136 -29.866 -17.958 -0.000327706 17.4014 -0.113486 47.8436 -7.12414 2.21577 -2.20295 -23.246 13.586 0.00582432 16.9538 -0.00287971 -4.26243 -10.1689 24.0702 
246.52 96.9362 -31.2802 6.87863 16.9625 -6.21063 -8.47433 -5.19545 7.77161 -41.7332 -12.4319 -0.495646 0.00258072 -0.000102437 -6.04678 -8.3147 -10.3354 -2.33271 -18.8334 -14.2192 -84.3525 8.39841 47.1971 69.2471 0.000428141 5.15194e-06 17.648 -16.2553 24.8459 0.238564 -10.0182 -32.4451 -20.8443 0.000170406 21.4237 -0.198223 55.6204 -0.384839 8.6876 -4.93787 -23.3279 11.4008 0.00524775 15.6208 -0.00511237 -2.65012 -10.2036 28.5731 
247.601 96.9016 -32.1038 7.72293 16.3802 -9.07591 -8.62987 -5.70356 8.07083 -41.2074 -12.3083 0.903661 0.00258833 -0.000102465 -5.89809 -5.67337 -8.2889 -1.99777 -18.7358 -13.7291 -86.0317 3.57539 48.22 74.1253 0.000454542 5.12631e-06 18.5233 -14.7783 24.9667 -0.673774 -12.269 -35.0964 -19.4835 -1.69963e-05 27.9723 -0.178724 53.6171 -2.77374 8.19495 -5.83935 -23.1438 12.5614 0.00427878 15.0865 -0.00639824 -1.18366 -10.0929 30.0556 
248.684 97.0273 -32.721 8.01872 15.6019 -11.3079 -8.40831 -6.42869 8.54116 -41.5046 -12.3349 1.67269 0.00259439 -0.000102426 -6.10511 -4.37162 -7.43788 -3.01129 -18.6184 -12.3937 -87.0528 -0.486738 50.1943 78.2957 0.000479458 5.10472e-06 19.2302 -12.8277 25.7027 -1.84386 -13.3863 -37.0167 -18.0658 -6.05485e-05 38.8866 -0.0965125 43.6642 -14.1157 -0.29375 -6.20554 -22.2021 15.1832 0.00292971 13.7057 -0.00685113 -0.511721 -9.33888 29.5124 
249.63 97.1448 -33.1252 8.00482 14.7439 -12.776 -8.08484 -6.75937 8.9589 -42.6561 -13.4264 1.81442 0.00259826 -0.000102236 -7.02862 -4.89575 -6.19403 -3.73278 -18.6784 -10.7192 -87.4241 -4.82345 52.2086 82.3129 0.000502727 5.07755e-06 20.0864 -11.3109 26.0983 -2.48095 -14.0505 -36.9079 -18.3746 6.03898e-05 50.1566 -0.0976119 39.2614 -17.9083 -4.71409 -6.64997 -21.2997 15.8569 0.0015221 12.8083 -0.00666328 0.786093 -8.62323 30.1035 
250.292 97.252 -33.2421 7.26551 13.698 -12.9151 -8.16586 -6.59703 8.92 -43.6595 -15.27 1.77454 0.00259989 -0.000101829 -8.68456 -5.54287 -5.25132 -3.49574 -17.8291 -9.41553 -87.7812 -9.37092 53.8137 86.8107 0.000524251 5.05776e-06 20.6884 -10.119 27.5301 -2.33593 -13.3294 -33.8421 -19.8022 -0.0067685 58.6295 -0.124379 39.1245 -12.9734 -4.34416 -6.41726 -20.2463 16.4762 0.000264757 12.9296 -0.00599296 2.48408 -8.16482 29.51 
250.824 97.1586 -33.1342 6.93525 13.1715 -12.0383 -8.29499 -6.66819 8.71429 -45.4404 -16.8509 0.788864 0.0026032 -0.000101781 -8.86049 -6.52323 -4.7304 -4.04623 -17.1404 -8.09766 -88.8598 -12.4418 55.1553 89.4361 0.000543903 5.04888e-06 20.9529 -9.06899 30.2202 -2.6328 -12.8394 -29.2419 -23.4101 1.13769e-05 63.7041 -0.159867 39.3114 -4.52683 -6.04298 -6.7081 -19.9783 15.794 -0.000782365 13.737 -0.00496768 2.57022 -8.53152 29.037 
251.364 96.9017 -32.9499 7.51697 12.5675 -11.0184 -8.40269 -6.98675 8.57919 -47.8289 -18.0405 -0.122203 0.0026077 -0.000102052 -7.81794 -7.58198 -4.76016 -4.14025 -17.4191 -6.22837 -89.9136 -16.7449 56.5513 92.1101 0.00056145 5.01169e-06 22.0288 -6.74128 31.5961 -4.33212 -12.9203 -23.7393 -27.875 9.89999e-05 65.087 -0.174952 40.1019 5.92884 -9.28237 -8.04662 -19.4791 14.6586 -0.00161377 14.1319 -0.00370222 -0.428305 -9.5989 28.6945 
251.785 96.6293 -32.9547 8.86191 12.3918 -10.9288 -8.63631 -7.26708 8.86361 -50.4276 -20.6327 -0.982374 0.00261168 -0.000102343 -6.52179 -9.41076 -5.54082 -4.59777 -18.1812 -5.08066 -90.5339 -20.4535 57.1381 93.9091 0.000576764 4.94414e-06 23.8652 -4.2981 32.3807 -5.85166 -12.5346 -18.9229 -31.5417 5.06125e-05 62.6143 -0.211039 45.5721 17.1413 -10.3397 -9.8693 -19.1618 13.9893 -0.00210308 13.4849 -0.00233822 -1.79337 -9.79268 28.1964 
